<svg xmlns="http://www.w3.org/2000/svg" xmlns:xlink="http://www.w3.org/1999/xlink" width="156" height="341" viewBox="0 0 156 341"><defs><path id="a" d="M.471.117h45.6v16.77H.471z"/><path id="c" d="M.42.505h68.636v41.243H.42z"/><path id="e" d="M.1.396h17.958v15.37H.1z"/><path id="g" d="M28.758.444C13.62 1.19 1.18 13.237.114 28.167A29.402 29.402 0 0 0 4.46 45.842l51.154.6a29.476 29.476 0 0 0 4.867-15.835C60.714 14.003 47.172.405 30.311.405c-.515 0-1.033.012-1.553.039"/><path id="i" d="M28.758.444C13.62 1.19 1.18 13.237.114 28.167A29.402 29.402 0 0 0 4.46 45.842l51.154.6a29.476 29.476 0 0 0 4.867-15.835C60.714 14.003 47.172.405 30.311.405c-.515 0-1.033.012-1.553.039"/><path id="k" d="M28.758.444C13.62 1.19 1.18 13.237.114 28.167A29.402 29.402 0 0 0 4.46 45.842l51.154.6a29.476 29.476 0 0 0 4.867-15.835C60.714 14.003 47.172.405 30.311.405c-.515 0-1.033.012-1.553.039"/><path id="m" d="M28.758.444C13.62 1.19 1.18 13.237.114 28.167A29.402 29.402 0 0 0 4.46 45.842l51.154.6a29.476 29.476 0 0 0 4.867-15.835C60.714 14.003 47.172.405 30.311.405c-.515 0-1.033.012-1.553.039"/><path id="o" d="M28.758.444C13.62 1.19 1.18 13.237.114 28.167A29.402 29.402 0 0 0 4.46 45.842l51.154.6a29.476 29.476 0 0 0 4.867-15.835C60.714 14.003 47.172.405 30.311.405c-.515 0-1.033.012-1.553.039"/><path id="q" d="M28.758.444C13.62 1.19 1.18 13.237.114 28.167A29.402 29.402 0 0 0 4.46 45.842l51.154.6a29.476 29.476 0 0 0 4.867-15.835C60.714 14.003 47.172.405 30.311.405c-.515 0-1.033.012-1.553.039"/><path id="s" d="M.168.462h60.117v86.081H.168z"/><path id="u" d="M17.705.624c6.435 5.278 10.533 13.242 10.533 22.152a28.384 28.384 0 0 1-3.813 14.247c-10.749 2.702-17.641-5.566-17.641-5.566S2.292 26.526.907 22.03c-.678-2.2-1.07-11.3 16.79-21.4l.008-.005z"/><path id="w" d="M37.138.24l-28.99.828C3.83 1.19.4 4.783.525 9.048l.912 31.177c.125 4.266 3.759 7.655 8.076 7.532l28.99-.828c4.317-.123 7.747-3.715 7.622-7.981l-.911-31.175C45.09 3.582 41.582.237 37.366.237l-.228.003"/><path id="y" d="M1.173.348c.78 0-.78 20.02-.78 20.02h9.87v32.309c0 3.317 2.721 6.005 6.077 6.005h9.666c3.356 0 6.076-2.688 6.076-6.005V14.333C32.082 6.609 25.746.348 17.93.348H1.173z"/><path id="A" d="M1.173.348c.78 0-.78 20.02-.78 20.02h9.87v32.309c0 3.317 2.721 6.005 6.077 6.005h9.666c3.356 0 6.076-2.688 6.076-6.005V14.333C32.082 6.609 25.746.348 17.93.348H1.173z"/><path id="C" d="M1.173.348c.78 0-.78 20.02-.78 20.02h9.87v32.309c0 3.317 2.721 6.005 6.077 6.005h9.666c3.356 0 6.076-2.688 6.076-6.005V14.333C32.082 6.609 25.746.348 17.93.348H1.173z"/><path id="E" d="M1.109.348c.779 0-.78 20.02-.78 20.02H10.2v32.309c0 3.317 2.72 6.005 6.076 6.005h9.666c3.356 0 6.076-2.688 6.076-6.005V14.333c0-7.724-6.336-13.985-14.152-13.985H1.109z"/><path id="G" d="M1.109.348c.779 0-.78 20.02-.78 20.02H10.2v32.309c0 3.317 2.72 6.005 6.076 6.005h9.666c3.356 0 6.076-2.688 6.076-6.005V14.333c0-7.724-6.336-13.985-14.152-13.985H1.109z"/><path id="I" d="M.26 25.003c36.39 16.042 51.59-8.04 55.694-16.654.733-1.54.024-3.37-1.56-4.037L46.487.98c-2.023-.852-4.392-.3-5.768 1.396-1.831 2.255-4.964 6.55-12.112 8.623C14.326 15.136 4.77.175 4.77.175L.26 25.003z"/><path id="K" d="M.26 25.003c36.39 16.042 51.59-8.04 55.694-16.654.733-1.54.024-3.37-1.56-4.037L46.487.98c-2.023-.852-4.392-.3-5.768 1.396-1.831 2.255-4.964 6.55-12.112 8.623C14.326 15.136 4.77.175 4.77.175L.26 25.003z"/><path id="M" d="M.03.521h47.517v14.062H.03z"/><path id="O" d="M.374.415h35.43v19.741H.374z"/><path id="Q" d="M.03.412h72.407v21.244H.03z"/><path id="S" d="M0 .131h78.085V58H0V.13z"/></defs><g fill="none" fill-rule="evenodd"><path fill="#E6DECA" d="M102.962 213.053c-.327 1.595-1.375 4.965-4.545 6.413-.112.052-.108.21.01.244.937.282 3.386 1.401 4.66 5.594.04.134.236.124.26-.013.256-1.4 1.232-4.684 4.837-5.556a.132.132 0 0 0 .01-.255c-1.236-.394-4.161-1.801-4.97-6.419-.026-.146-.232-.153-.262-.008"/><path fill="#4F687A" d="M155.403 156.495H12.097v-36.35c0-2.702 2.215-4.893 4.946-4.893h133.414c2.732 0 4.946 2.19 4.946 4.893v36.35z"/><path fill="#4F687A" d="M128.146 139.321h-69.3c-2.054 0-3.718-1.647-3.718-3.678v-9.413c0-2.032 1.664-3.679 3.718-3.679h69.3c2.054 0 3.718 1.647 3.718 3.679v9.413c0 2.031-1.664 3.678-3.718 3.678"/><path fill="#7C8F97" d="M95.147 129.383h-2.994c-.7 0-1.269-.562-1.269-1.255v-1.34c0-.694.569-1.256 1.269-1.256h2.994c.7 0 1.268.562 1.268 1.256v1.34c0 .693-.567 1.255-1.268 1.255m7.983-.062h-2.995c-.7 0-1.268-.562-1.268-1.255v-1.34c0-.694.568-1.256 1.268-1.256h2.994c.701 0 1.269.562 1.269 1.256v1.34c0 .692-.568 1.255-1.269 1.255m7.983-.061h-2.994c-.7 0-1.268-.563-1.268-1.256v-1.34c0-.694.568-1.256 1.268-1.256h2.994c.7 0 1.268.562 1.268 1.256v1.34c0 .692-.568 1.255-1.268 1.255m7.982-.063H116.1c-.7 0-1.268-.562-1.268-1.255v-1.34c0-.694.568-1.255 1.268-1.255h2.994c.7 0 1.268.561 1.268 1.255v1.34c0 .693-.567 1.255-1.268 1.255m-23.884 6.399h-2.994c-.7 0-1.269-.562-1.269-1.256V133c0-.694.568-1.255 1.269-1.255h2.993c.701 0 1.269.561 1.269 1.255v1.34c0 .693-.568 1.256-1.269 1.256m7.983-.064h-2.994c-.7 0-1.268-.562-1.268-1.255v-1.34c0-.694.568-1.255 1.268-1.255h2.994c.7 0 1.269.561 1.269 1.254v1.341c0 .693-.568 1.255-1.269 1.255m7.983-.062h-2.994c-.7 0-1.269-.561-1.269-1.255v-1.34c0-.694.568-1.255 1.269-1.255h2.994c.7 0 1.268.561 1.268 1.254v1.341c0 .694-.568 1.255-1.268 1.255m7.982-.062h-2.994c-.7 0-1.269-.561-1.269-1.255v-1.34c0-.694.568-1.255 1.269-1.255h2.994c.7 0 1.268.561 1.268 1.254v1.341c0 .693-.568 1.255-1.268 1.255m-45.035-5.932H71.13c-.7 0-1.269-.562-1.269-1.255v-1.34c0-.694.568-1.255 1.269-1.255h2.993c.701 0 1.269.561 1.269 1.255v1.34c0 .693-.568 1.255-1.269 1.255m.063 6.212h-2.994c-.7 0-1.269-.563-1.269-1.255v-1.34c0-.695.568-1.256 1.269-1.256h2.994c.7 0 1.268.561 1.268 1.255v1.34c0 .693-.568 1.256-1.268 1.256m8.422-6.212h-2.994c-.7 0-1.269-.562-1.269-1.255v-1.34c0-.694.569-1.255 1.269-1.255h2.994c.7 0 1.268.561 1.268 1.255v1.34c0 .693-.568 1.255-1.268 1.255m.062 6.212h-2.993c-.7 0-1.269-.563-1.269-1.255v-1.34c0-.695.568-1.256 1.269-1.256h2.993c.701 0 1.269.561 1.269 1.255v1.34c0 .693-.568 1.256-1.269 1.256"/><path fill="#D4CCB0" d="M122.311 125.905h2.388v9.503h-2.388z"/><g opacity=".18" transform="translate(85.793 122.433)"><mask id="b" fill="#fff"><use xlink:href="#a"/></mask><path fill="#424244" d="M42.35.117H.473v16.77h41.88c2.054 0 3.72-1.645 3.72-3.676V3.794C46.07 1.764 44.405.117 42.35.117" mask="url(#b)"/></g><g opacity=".11" transform="translate(86.348 114.747)"><mask id="d" fill="#fff"><use xlink:href="#c"/></mask><path fill="#424244" d="M64.106.506H.419v41.243h68.636V5.396c0-2.7-2.216-4.89-4.95-4.89" mask="url(#d)"/></g><path stroke="#D0C6BC" stroke-width="3" d="M23.191 61.31H5.882c-1.93 0-3.495 1.546-3.495 3.454v59.519c0 1.908 1.565 3.454 3.495 3.454h9.327"/><path fill="#4F687A" d="M29.356 66.595h-4.258c-2.026 0-3.67-1.626-3.67-3.631V60.31c0-2.006 1.644-3.632 3.67-3.632h4.258c.032 0 .058.026.058.058v9.8a.057.057 0 0 1-.058.058"/><path fill="#615A70" d="M72.71 104.71c-1.269 5.123-2.537 10.246-3.804 15.371h35.5a47508.13 47508.13 0 0 1-3.804-15.37H72.71z"/><g opacity=".07" transform="translate(86.348 104.315)"><mask id="f" fill="#fff"><use xlink:href="#e"/></mask><path fill="#424244" d="M.1 15.766h17.958L14.254.396H.1v15.37z" mask="url(#f)"/></g><path fill="#7D728D" d="M106.6 119.81H66.71c-1.012 0-1.833.95-1.833 2.127v.799h43.555v-.799c0-1.177-.823-2.128-1.834-2.128"/><path fill="#473F54" d="M26.676 98.732v8.47c0 1.63 1.334 2.95 2.988 2.95h113.982c1.65 0 2.988-1.32 2.988-2.95v-8.47H26.676zm119.958 0V27.02c0-1.631-1.338-2.951-2.988-2.951H29.664c-1.654 0-2.988 1.32-2.988 2.95v71.712h119.958z"/><path fill="#615A70" d="M31.591 28.682h110.13v65.155H31.591z"/><path fill="#F08862" d="M88.976 104.46c0 1.125-.923 2.037-2.062 2.037-1.138 0-2.061-.912-2.061-2.037s.923-2.037 2.061-2.037c1.14 0 2.062.912 2.062 2.037"/><path fill="#7C8F97" d="M45.266 52.277h9.539v2.349h-9.539zm-.184-8.877c0-2.956 2.426-5.352 5.415-5.352 2.992 0 5.417 2.396 5.417 5.351 0 2.958-2.425 5.353-5.417 5.353-2.99 0-5.415-2.395-5.415-5.353"/><path fill="#CDC2A9" d="M59.31 46.685h17.761v1.706H59.31zm-.063-3.106h17.761v1.706H59.247zm-.063-3.106h17.761v1.706H59.184zm.175 9.471H77.12v1.706H59.359zm0 3.212H77.12v1.706H59.359z"/><path fill="#473F54" d="M46.039 64.071h32.433v1.118H46.039zm-.126 4.224h32.433v1.118H45.913zm-.126 4.223H78.22v1.118H45.787zm-.126 4.224h32.433v1.118H45.661zm-.125 4.224h32.433v1.118H45.536z"/><g transform="translate(8.66 66.981)"><mask id="h" fill="#fff"><use xlink:href="#g"/></mask><path fill="#BBB099" d="M-13.846 72.464l2.59.03.377-26.896-2.59-.03z" mask="url(#h)"/></g><g transform="translate(8.66 66.981)"><mask id="j" fill="#fff"><use xlink:href="#i"/></mask><path fill="#BBB099" d="M-31.536 71.83l2.59.03.377-26.896-2.59-.03z" mask="url(#j)"/></g><g transform="translate(8.66 66.981)"><mask id="l" fill="#fff"><use xlink:href="#k"/></mask><path fill="#BBB099" d="M-7.194 112.721l71.338.838.035-2.558-71.337-.838z" mask="url(#l)"/></g><g transform="translate(8.66 66.981)"><mask id="n" fill="#fff"><use xlink:href="#m"/></mask><path fill="#BBB099" d="M-5.858 125.206l71.337.837.036-2.557-71.337-.836z" mask="url(#n)"/></g><g transform="translate(8.66 66.981)"><mask id="p" fill="#fff"><use xlink:href="#o"/></mask><path fill="#BBB099" d="M-5.92 137.356l71.337.837.036-2.558-71.337-.837z" mask="url(#p)"/></g><g transform="translate(8.66 66.981)"><mask id="r" fill="#fff"><use xlink:href="#q"/></mask><path fill="#BBB099" d="M-6.409 149.073l71.338.837.035-2.556-71.337-.838z" mask="url(#r)"/></g><path fill="#7C8F97" d="M53.159 19.101H38.667c-1.83 0-3.314 1.468-3.314 3.278v1.691h21.119v-1.69c0-1.81-1.483-3.278-3.313-3.278"/><path fill="#4F687A" d="M45.347 2.331h1.131v16.793h-1.131z"/><path fill="#F18D6D" d="M48.459 3.06c0 1.467-1.203 2.655-2.687 2.655-1.484 0-2.687-1.188-2.687-2.655 0-1.466 1.203-2.655 2.687-2.655 1.484 0 2.687 1.189 2.687 2.655"/><g transform="translate(86.348 23.608)" opacity=".18"><mask id="t" fill="#fff"><use xlink:href="#s"/></mask><path fill="#424244" d="M57.298.462H.168v86.081h57.13c1.65 0 2.988-1.32 2.988-2.95V3.413c0-1.63-1.339-2.951-2.988-2.951" mask="url(#t)"/></g><g stroke="#F39C79"><path d="M110.256 36.464v1"/><path stroke-dasharray="3.014,5.024" d="M110.256 38.895v49.988"/><path d="M110.256 89.82v1M81.344 72.614h1"/><path stroke-dasharray="3.014,5.024" d="M83.804 72.614h50.584"/><path d="M135.335 72.614h1M80.967 55.346h1"/><path stroke-dasharray="3.014,5.024" d="M83.427 55.346h50.583"/><path d="M134.958 55.346h1"/></g><path fill="#D34F26" d="M99.94 72.952l-.078-14.299-1.915-1.114.07 14.292z"/><path fill="#EF805C" d="M97.939 57.527l12.571-7.203 1.924 1.153-12.564 7.176z"/><path fill="#EC6F42" d="M101.863 74.105l-.078-14.298-1.914-1.115.069 14.293z"/><path fill="#F39C79" d="M99.862 58.68l12.572-7.203 1.924 1.154-12.564 7.176z"/><path fill="#D34F26" d="M103.786 75.259l-.077-14.3-1.915-1.113.069 14.292z"/><path fill="#EF805C" d="M101.785 59.834l12.573-7.203 1.922 1.153-12.563 7.176z"/><path fill="#EC6F42" d="M105.71 76.412l-.077-14.299L103.718 61l.069 14.293z"/><path fill="#F39C79" d="M103.71 60.988l12.57-7.204 1.924 1.153-12.564 7.176z"/><path fill="#D34F26" d="M107.633 77.566l-.078-14.3-1.914-1.113.07 14.292z"/><path fill="#EF805C" d="M105.632 62.141l12.572-7.204 1.924 1.154-12.565 7.176z"/><path fill="#EC6F42" d="M109.556 78.719l-.077-14.3-1.915-1.113.07 14.292z"/><path fill="#F39C79" d="M107.555 63.294l12.573-7.203 1.923 1.154-12.564 7.175z"/><path fill="#D34F26" d="M111.48 79.872l-.077-14.299-1.915-1.113.069 14.292z"/><path fill="#EF805C" d="M109.48 64.448l12.571-7.204 1.923 1.121-12.564 7.209z"/><path fill="#EC6F42" d="M123.974 58.365l.174 14.522-12.681 6.985-.064-14.298z"/><path fill="#F39C79" d="M121.274 63.049l.098 8.197-7.158 3.943-.036-8.072z"/><path fill="#FFF2D9" d="M63.66 171.644h16.756c7.816 0 14.152 6.261 14.152 13.985v38.344c0 3.317-2.72 6.006-6.076 6.006h-9.665c-3.356 0-6.076-2.688-6.076-6.006v-32.308h-9.87s1.557-20.021.778-20.021"/><path fill="#FFF2D9" d="M33.075 171.644h16.757c7.816 0 14.152 6.261 14.152 13.985v38.344c0 3.317-2.72 6.006-6.077 6.006h-9.665c-3.356 0-6.077-2.688-6.077-6.006v-32.308h-9.87s1.559-20.021.78-20.021"/><path fill="#BBB099" d="M34.6 68.698l-5.165-24.282-2.587.552 5.164 24.284z"/><path fill="#ED8270" d="M23.755 48.326c2.34 2.283 6.111 2.26 8.422-.054a5.836 5.836 0 0 0-.055-8.323c-2.34-2.283-6.111-2.259-8.422.054a5.836 5.836 0 0 0 .055 8.323"/><path fill="#FFF2D9" d="M39.784 125.435c-16.082 0-29.12-12.883-29.12-28.776s13.038-28.776 29.12-28.776c16.081 0 29.119 12.883 29.119 28.776s-13.037 28.776-29.12 28.776z"/><g transform="translate(40.665 73.883)"><mask id="v" fill="#fff"><use xlink:href="#u"/></mask><use fill="#7D9199" xlink:href="#u"/><path d="M.05 8.173l37.297 11.403-.878 2.869L-.826 11.042zm-.52 6.382l37.296 11.403-.877 2.869-37.296-11.403z" fill="#FFF" mask="url(#v)" opacity=".25"/></g><path fill="#FFF2D9" d="M68.61 183.707v-44.596c0-13.73-11.368-24.966-25.263-24.966h-9.49c-13.895 0-25.263 11.235-25.263 24.966v31.518c0 7.238 5.915 13.116 13.238 13.15 17.593.088 46.514.191 46.779-.072"/><path fill="#FFF2D9" d="M61.708 122.06s9.555 14.96 23.835 10.822c7.148-2.072 10.28-6.367 12.112-8.623 1.376-1.695 3.745-2.248 5.768-1.396l7.91 3.334c1.582.667 2.291 2.497 1.558 4.035-4.104 8.614-19.303 32.697-55.693 16.655"/><path fill="#F99D78" d="M13.178 170.19l28.99-.828c4.316-.124 7.747-3.715 7.621-7.98l-.91-31.177c-.126-4.266-3.76-7.656-8.077-7.532l-28.99.827c-4.317.124-7.747 3.716-7.622 7.982l.911 31.175c.125 4.266 3.76 7.656 8.077 7.533"/><path fill="#F99D78" d="M68.56 161.662s-12.224 4.809-19.99-4.386c-7.767-9.195 1.032 5.982 1.032 5.982s6.726 6.631 19.232 2.404"/><path fill="#3D545E" d="M5.114 163.103l25.886-.74c2.764-.079 4.96-2.378 4.88-5.11l-.105-3.577c-.08-2.73-2.406-4.901-5.17-4.823l-25.885.74.394 13.51z"/><path fill="#D4CCB0" d="M27.383 144.547c.037 1.247 1.088 2.227 2.349 2.19 1.26-.035 2.253-1.075 2.217-2.32-.037-1.247-1.089-2.227-2.35-2.192-1.26.037-2.252 1.077-2.216 2.322m-7.784.223c.036 1.246 1.088 2.226 2.348 2.19 1.261-.036 2.254-1.075 2.217-2.32-.036-1.247-1.088-2.228-2.349-2.192-1.26.036-2.253 1.075-2.216 2.322"/><path fill="#9EAFB2" d="M30.93 159.67a1.458 1.458 0 0 0 1.421-1.487l-.153-5.221a1.462 1.462 0 0 0-1.505-1.405 1.458 1.458 0 0 0-1.421 1.487l.152 5.222a1.46 1.46 0 0 0 1.506 1.404m-6.321.181a1.46 1.46 0 0 0 1.42-1.488l-.152-5.221a1.46 1.46 0 0 0-1.505-1.404 1.457 1.457 0 0 0-1.421 1.487l.152 5.221a1.461 1.461 0 0 0 1.506 1.405m-6.321.18a1.459 1.459 0 0 0 1.42-1.488l-.152-5.221a1.461 1.461 0 0 0-1.505-1.404 1.458 1.458 0 0 0-1.422 1.487l.153 5.222a1.46 1.46 0 0 0 1.506 1.404m-6.322.181a1.458 1.458 0 0 0 1.422-1.487l-.153-5.221a1.46 1.46 0 0 0-1.506-1.404 1.457 1.457 0 0 0-1.421 1.487l.152 5.221a1.46 1.46 0 0 0 1.506 1.404m-3.291-13.741l7.257-.207a1.478 1.478 0 0 0 1.44-1.509 1.48 1.48 0 0 0-1.526-1.422l-7.257.207a1.477 1.477 0 0 0-1.44 1.508 1.48 1.48 0 0 0 1.526 1.423"/><g transform="translate(3.665 122.433)"><mask id="x" fill="#fff"><use xlink:href="#w"/></mask><path fill="#3D545E" d="M-1.374.891h30.891v16.101H-1.374z" mask="url(#x)" transform="rotate(178.35 14.072 8.942)"/></g><g transform="translate(62.487 171.296)"><mask id="z" fill="#fff"><use xlink:href="#y"/></mask><path fill="#B6AF98" d="M9.636 20.79h24.89v2.609H9.636z" mask="url(#z)"/></g><g transform="translate(62.487 171.296)"><mask id="B" fill="#fff"><use xlink:href="#A"/></mask><path fill="#B6AF98" d="M8.882 32.964h24.89v2.609H8.882z" mask="url(#B)"/></g><g transform="translate(62.487 171.296)"><mask id="D" fill="#fff"><use xlink:href="#C"/></mask><path fill="#B6AF98" d="M8.127 45.138h24.89v2.609H8.127z" mask="url(#D)"/></g><g transform="translate(31.966 171.296)"><mask id="F" fill="#fff"><use xlink:href="#E"/></mask><path fill="#B6AF98" d="M8.402 32.964h24.89v2.609H8.402z" mask="url(#F)"/></g><g transform="translate(31.966 171.296)"><mask id="H" fill="#fff"><use xlink:href="#G"/></mask><path fill="#B6AF98" d="M7.647 45.138h24.89v2.609H7.647z" mask="url(#H)"/></g><g><g transform="translate(56.937 121.884)"><mask id="J" fill="#fff"><use xlink:href="#I"/></mask><path fill="#B6AF98" d="M38.55 35.454L25.44 6.867l2.403-1.076 13.111 28.586z" mask="url(#J)"/></g><g transform="translate(56.937 121.884)"><mask id="L" fill="#fff"><use xlink:href="#K"/></mask><path fill="#B6AF98" d="M51.954 27.536L32.822 2.484 34.93.913l19.13 25.052z" mask="url(#L)"/></g></g><g><path fill="#4F687A" d="M37.239 260.547v-5.861c0-4.53 3.716-8.201 8.3-8.201h76.172c4.584 0 8.3 3.671 8.3 8.2v5.862H37.238z"/><g opacity=".11" transform="translate(82.464 245.964)"><mask id="N" fill="#fff"><use xlink:href="#M"/></mask><path fill="#424244" d="M39.248.521H.029v14.062h47.518V8.722c0-4.53-3.716-8.201-8.3-8.201" mask="url(#N)"/></g><path fill="#7C8F97" d="M144.165 247.305H23.085c-5.905 0-10.736-4.78-10.736-10.622 0-5.841 4.831-10.622 10.736-10.622h121.08c5.905 0 10.736 4.78 10.736 10.622s-4.832 10.622-10.736 10.622"/><path fill="#4F687A" d="M32.716 238.733h-9.998a1.691 1.691 0 0 1-1.695-1.677c0-.922.763-1.677 1.695-1.677h9.998c.932 0 1.695.755 1.695 1.677s-.763 1.677-1.695 1.677"/><path fill="#D4CCB0" d="M40.728 236.87a1.78 1.78 0 0 1-1.792 1.77 1.78 1.78 0 0 1-1.792-1.77c0-.978.802-1.77 1.792-1.77s1.792.792 1.792 1.77m6.128.093a1.78 1.78 0 0 1-1.792 1.77 1.78 1.78 0 0 1-1.791-1.77c0-.979.802-1.77 1.791-1.77.99 0 1.792.792 1.792 1.77m6.128.093a1.78 1.78 0 0 1-1.792 1.77 1.78 1.78 0 0 1-1.791-1.77c0-.978.802-1.77 1.791-1.77.99 0 1.792.792 1.792 1.77"/><path fill="#473F54" d="M57.384 201.776c-1.71-1.303-17.292-.525-17.835-.497-.543-.028-16.125-.806-17.835.497 0 0 15.337 1.646 14.834 24.753h6.002c-.503-23.107 14.834-24.753 14.834-24.753"/><path fill="#7D728D" d="M69.229 201.885H10.723c-2.86 0-5.2-2.315-5.2-5.144v-9.453c0-2.83 2.34-5.145 5.2-5.145h58.506c2.86 0 5.2 2.315 5.2 5.145v9.453c0 2.83-2.34 5.144-5.2 5.144"/><g opacity=".18" transform="translate(38.625 181.728)"><mask id="P" fill="#fff"><use xlink:href="#O"/></mask><path fill="#424244" d="M30.601.415H.374v19.741h30.227c2.862 0 5.203-2.313 5.203-5.141V5.557c0-2.828-2.341-5.142-5.203-5.142" mask="url(#P)"/></g><g opacity=".11" transform="translate(82.464 225.65)"><mask id="R" fill="#fff"><use xlink:href="#Q"/></mask><path fill="#424244" d="M61.689.412H.029v21.243h61.66c5.911 0 10.747-4.78 10.747-10.621C72.436 5.192 67.6.412 61.69.412" mask="url(#R)"/></g></g><g><g transform="rotate(90 -74.935 187.065)"><mask id="T" fill="#fff"><use xlink:href="#S"/></mask><path fill="#E76161" d="M45.93 52.504l31.95-23.163a.495.495 0 0 0-.003-.8L45.802 5.551C32.812-3.76 14.732-.777 5.42 12.214c-9.31 12.991-6.328 31.07 6.663 40.382 10.38 7.438 24.037 6.997 33.846-.092" mask="url(#T)"/></g><path fill="#F79C79" d="M67.71 292.035l15.147 20.895a.323.323 0 0 0 .524-.002l15.034-20.976c6.09-8.496 4.138-20.318-4.357-26.407-8.495-6.09-20.319-4.138-26.408 4.357-4.864 6.787-4.576 15.719.06 22.133"/><path fill="#FFF2D9" d="M74.394 278.894l8.521 11.752a.18.18 0 0 0 .293 0l8.457-11.799c3.425-4.778 2.328-11.429-2.45-14.853-4.779-3.425-11.429-2.328-14.854 2.45-2.737 3.818-2.574 8.842.033 12.45"/></g></g></svg>